<svg id="svg" version="1.1" width="400" height="181.5" viewBox="0 0 400 181.5" xmlns="http://www.w3.org/2000/svg" xmlns:xlink="http://www.w3.org/1999/xlink" ><g id="svgg"><path id="path0" d="M195.872 92.192 L 195.824 97.231 190.785 97.279 L 185.747 97.328 185.747 99.140 L 185.747 100.953 190.831 100.953 L 195.915 100.953 195.915 106.037 L 195.915 111.121 197.727 111.121 L 199.540 111.121 199.589 106.083 L 199.637 101.044 204.766 100.996 L 209.896 100.948 209.896 99.138 L 209.896 97.327 204.766 97.279 L 199.637 97.231 199.589 92.192 L 199.540 87.154 197.730 87.154 L 195.920 87.154 195.872 92.192 " stroke="none" fill="#000000" fill-rule="evenodd"></path><path id="path1" d="M0.000 90.785 L 0.000 181.571 200.000 181.571 L 400.000 181.571 400.000 90.785 L 400.000 0.000 200.000 0.000 L 0.000 0.000 0.000 90.785 M362.617 31.414 C 367.410 32.316,370.054 37.490,367.952 41.852 C 365.248 47.463,357.503 47.570,354.790 42.034 C 352.112 36.568,356.728 30.306,362.617 31.414 M288.028 42.377 C 291.342 43.375,292.429 47.836,289.951 50.266 C 287.031 53.128,282.211 51.421,281.846 47.394 C 281.528 43.881,284.637 41.357,288.028 42.377 M333.936 43.673 C 351.451 45.679,365.794 56.086,372.785 71.862 C 374.242 75.148,374.187 75.205,371.811 72.871 C 351.534 52.955,306.508 52.959,286.019 72.880 C 284.896 73.972,283.976 74.773,283.976 74.659 C 283.976 73.922,286.015 69.576,287.694 66.733 C 292.664 58.319,300.676 51.286,309.820 47.309 C 317.115 44.136,326.124 42.778,333.936 43.673 M105.217 61.571 C 106.021 62.116,106.750 63.155,109.211 67.272 C 111.495 71.093,111.595 71.223,112.105 71.059 C 112.581 70.906,117.531 69.567,118.384 69.360 C 118.734 69.275,119.510 69.072,120.109 68.910 C 122.261 68.325,122.668 68.242,123.831 68.152 C 125.857 67.995,127.099 68.863,127.099 70.434 C 127.099 71.796,126.824 72.206,122.444 77.365 C 121.731 78.205,120.439 79.727,119.573 80.747 L 117.999 82.601 118.986 84.469 C 123.382 92.796,123.167 92.326,123.174 93.600 C 123.192 96.685,120.552 98.000,116.750 96.802 C 115.010 96.253,113.554 95.808,111.867 95.308 C 110.183 94.809,109.914 94.541,109.752 93.206 C 109.681 92.624,109.516 91.629,109.386 90.995 C 109.013 89.184,109.173 89.091,111.484 89.773 C 111.934 89.906,112.669 90.116,113.118 90.241 C 113.568 90.365,114.321 90.585,114.792 90.729 C 115.263 90.874,115.857 90.966,116.113 90.934 L 116.577 90.876 116.013 89.787 C 115.084 87.991,113.081 84.200,112.725 83.562 C 112.120 82.478,112.213 82.298,115.161 78.856 C 119.389 73.919,119.405 73.898,118.520 74.159 C 118.296 74.225,117.335 74.485,116.387 74.736 C 115.438 74.987,114.212 75.315,113.663 75.464 C 113.114 75.613,112.379 75.806,112.029 75.893 C 111.680 75.979,110.868 76.182,110.225 76.342 C 108.780 76.703,109.125 77.049,106.360 72.466 C 103.687 68.033,103.781 68.076,103.317 71.085 C 103.224 71.684,103.019 72.869,102.860 73.718 C 102.701 74.567,102.449 75.956,102.300 76.804 C 101.966 78.698,101.881 78.782,99.591 79.500 C 98.593 79.813,96.836 80.363,95.688 80.723 C 94.539 81.082,93.191 81.525,92.692 81.707 L 91.784 82.039 92.833 82.509 C 93.410 82.767,93.929 82.978,93.986 82.978 C 94.043 82.978,94.347 83.093,94.662 83.233 C 94.976 83.374,96.092 83.832,97.140 84.252 C 99.439 85.173,99.326 85.109,99.205 85.424 C 99.126 85.629,97.319 86.907,96.505 87.334 C 96.405 87.386,95.792 87.781,95.143 88.212 C 93.763 89.128,93.713 89.126,91.446 88.073 C 90.572 87.668,89.823 87.335,89.783 87.335 C 88.742 87.335,85.332 85.082,84.581 83.899 C 82.953 81.331,84.403 79.462,89.242 77.894 C 90.540 77.473,92.174 76.944,92.873 76.717 C 93.572 76.491,94.880 76.082,95.778 75.808 C 97.979 75.137,97.719 75.664,98.692 69.905 C 99.628 64.364,100.210 62.709,101.595 61.652 C 102.612 60.874,104.139 60.840,105.217 61.571 M350.794 79.910 L 350.794 82.433 353.155 82.433 L 355.515 82.433 355.515 83.775 C 355.515 85.400,355.619 85.338,352.868 85.338 L 350.794 85.338 350.794 90.803 C 350.794 97.914,350.881 98.142,353.583 98.135 C 354.396 98.133,355.121 98.215,355.195 98.317 C 355.421 98.631,355.352 100.531,355.107 100.734 C 354.324 101.381,351.327 101.403,349.977 100.771 C 347.592 99.653,347.163 98.071,347.163 90.402 L 347.163 85.338 346.028 85.335 C 344.470 85.332,344.411 85.272,344.476 83.779 L 344.530 82.524 345.847 82.470 L 347.163 82.417 347.163 80.348 C 347.163 77.979,347.058 78.138,348.979 77.612 C 350.882 77.090,350.794 76.979,350.794 79.910 M317.834 82.707 C 322.569 85.086,324.044 92.793,320.722 97.798 C 318.246 101.528,312.565 102.406,309.388 99.549 L 308.488 98.741 308.488 103.365 C 308.488 108.767,308.616 108.437,306.554 108.360 L 305.129 108.307 305.039 95.960 C 304.989 89.169,304.881 83.510,304.800 83.385 C 304.344 82.681,304.823 82.417,306.460 82.472 L 308.034 82.524 308.125 83.879 L 308.216 85.233 308.852 84.497 C 310.899 82.123,315.033 81.299,317.834 82.707 M370.186 82.696 C 372.703 83.842,374.580 87.238,374.580 90.645 C 374.580 92.564,375.123 92.419,367.923 92.419 L 361.642 92.419 361.768 93.373 C 362.308 97.451,366.599 99.442,371.493 97.884 C 372.906 97.435,373.036 97.524,373.231 99.087 C 373.382 100.290,373.413 100.263,371.221 100.791 C 362.537 102.880,356.365 97.097,358.509 88.879 C 359.935 83.414,365.403 80.519,370.186 82.696 M388.341 83.743 L 388.289 85.417 387.235 85.449 C 385.359 85.506,383.683 86.765,383.086 88.566 C 382.934 89.024,382.840 91.051,382.796 94.864 C 382.754 98.489,382.662 100.569,382.537 100.720 C 382.280 101.029,379.843 101.035,379.429 100.726 C 379.167 100.530,378.972 89.365,379.114 82.653 C 379.118 82.476,379.490 82.431,380.617 82.471 L 382.115 82.524 382.168 83.931 C 382.231 85.588,382.284 85.615,383.103 84.409 C 384.205 82.785,385.465 82.092,387.342 82.078 L 388.393 82.070 388.341 83.743 M277.511 82.720 C 277.749 83.340,277.622 98.283,277.357 100.775 C 276.835 105.691,274.940 107.998,270.970 108.550 C 269.433 108.764,269.347 108.694,269.184 107.088 L 269.060 105.869 269.573 105.756 C 273.846 104.810,273.837 104.841,273.941 91.920 L 274.018 82.433 275.710 82.433 C 277.084 82.433,277.422 82.487,277.511 82.720 M286.906 88.606 C 287.036 95.441,287.127 96.023,288.254 97.182 C 290.097 99.077,293.485 98.273,294.932 95.597 C 295.309 94.899,295.327 94.625,295.381 88.652 L 295.437 82.433 297.132 82.433 C 298.509 82.433,298.847 82.487,298.937 82.720 C 299.222 83.464,299.053 100.730,298.760 100.843 C 297.132 101.468,295.778 100.811,295.778 99.397 C 295.778 98.205,295.771 98.204,294.730 99.230 C 291.277 102.634,285.546 101.618,283.970 97.322 C 283.547 96.169,283.535 95.982,283.474 89.280 L 283.412 82.419 285.101 82.471 L 286.791 82.524 286.906 88.606 M328.404 82.660 C 328.485 82.785,328.859 83.704,329.237 84.703 C 330.964 89.269,332.534 93.534,332.945 94.780 C 333.402 96.164,333.727 96.747,333.727 96.183 C 333.727 95.836,336.013 88.891,337.401 85.020 L 338.329 82.433 340.113 82.433 C 342.195 82.433,342.133 82.335,341.336 84.363 C 340.715 85.943,339.703 88.566,339.173 89.968 C 334.063 103.502,332.316 106.536,328.579 108.369 C 326.726 109.278,326.565 109.279,326.211 108.392 C 325.529 106.690,325.594 106.179,326.549 105.715 C 328.580 104.729,330.182 103.137,331.102 101.191 C 331.648 100.038,331.684 100.218,330.140 96.414 C 329.592 95.066,328.467 92.288,327.639 90.241 C 326.811 88.193,325.799 85.708,325.391 84.718 C 324.982 83.728,324.648 82.809,324.648 82.675 C 324.648 82.340,328.189 82.326,328.404 82.660 M365.392 84.809 C 363.979 85.145,362.415 86.885,361.954 88.634 C 361.653 89.772,361.324 89.696,366.539 89.696 L 371.147 89.696 371.035 89.015 C 370.796 87.549,370.730 87.348,370.226 86.554 C 369.286 85.071,367.300 84.354,365.392 84.809 M29.086 85.407 C 30.775 86.212,33.227 88.716,33.227 89.635 C 33.227 90.062,28.918 93.327,28.354 93.327 C 28.116 93.327,27.869 93.130,27.702 92.806 C 26.740 90.946,24.578 90.084,23.126 90.982 C 21.347 92.082,21.579 93.045,24.328 95.960 C 25.261 96.949,26.929 98.744,28.461 100.408 C 32.908 105.238,28.987 114.027,21.771 115.404 C 16.980 116.317,13.625 114.850,11.810 111.048 C 10.925 109.192,10.951 109.011,12.209 108.334 C 16.803 105.864,16.614 105.907,17.223 107.202 C 18.559 110.044,21.105 110.691,23.315 108.752 C 24.935 107.328,24.584 106.215,21.399 102.683 C 16.684 97.453,16.380 97.008,15.978 94.754 C 14.877 88.576,23.234 82.616,29.086 85.407 M311.666 85.407 C 309.284 86.532,308.488 88.152,308.488 91.875 C 308.488 96.238,310.111 98.277,313.581 98.277 C 316.946 98.277,318.834 95.879,318.834 91.602 C 318.834 86.625,315.390 83.648,311.666 85.407 M100.953 86.185 C 100.953 86.330,100.872 87.036,100.772 87.755 C 100.673 88.473,100.505 89.755,100.399 90.604 C 100.293 91.453,100.088 92.979,99.944 93.997 C 99.434 97.599,99.536 97.794,101.030 96.079 C 101.521 95.514,102.583 94.322,103.390 93.429 C 108.323 87.970,108.059 88.077,108.593 91.330 C 109.133 94.621,109.395 93.986,106.037 97.499 C 104.589 99.014,103.347 100.356,103.277 100.481 C 103.158 100.694,103.668 101.525,105.406 103.949 C 105.764 104.448,106.257 105.143,106.501 105.493 C 106.745 105.842,107.238 106.537,107.597 107.036 C 109.038 109.043,112.166 113.428,112.564 114.000 C 113.172 114.872,112.974 114.928,109.275 114.931 L 106.068 114.934 103.041 110.350 C 101.377 107.828,99.758 105.379,99.443 104.908 C 98.725 103.833,98.624 103.943,98.398 106.052 C 98.298 106.993,98.167 107.885,98.109 108.034 C 98.050 108.184,97.937 108.961,97.859 109.759 C 97.312 115.299,97.561 114.934,94.326 114.934 C 91.286 114.934,91.254 114.914,91.498 113.207 C 91.598 112.509,91.809 110.958,91.968 109.759 C 92.127 108.561,92.332 107.049,92.424 106.400 C 92.515 105.751,92.717 104.158,92.872 102.860 C 93.026 101.562,93.229 99.968,93.323 99.319 C 93.417 98.670,93.621 97.118,93.777 95.869 C 93.934 94.621,94.139 93.069,94.234 92.419 C 94.329 91.770,94.443 90.889,94.486 90.460 C 94.590 89.442,94.649 89.382,97.066 87.838 C 100.560 85.605,100.953 85.438,100.953 86.185 M199.909 91.872 L 199.909 96.953 204.948 97.001 L 209.986 97.049 210.038 99.089 L 210.089 101.129 205.045 101.177 L 200.000 101.226 199.909 106.310 L 199.818 111.394 197.821 111.394 L 195.824 111.394 195.733 106.310 L 195.642 101.226 190.558 101.135 L 185.474 101.044 185.474 99.047 L 185.474 97.049 190.604 97.001 L 195.733 96.953 195.733 91.872 L 195.733 86.791 197.821 86.791 L 199.909 86.791 199.909 91.872 M46.300 92.607 C 55.742 94.087,57.803 105.869,49.781 112.502 C 45.938 115.679,40.159 116.416,36.555 114.188 C 35.782 113.711,35.645 113.835,35.532 115.116 C 35.278 118.000,34.757 121.055,34.457 121.425 C 34.327 121.585,33.608 121.652,32.047 121.652 C 29.167 121.652,29.256 121.753,29.668 118.965 C 30.151 115.691,30.290 114.669,30.593 112.120 C 30.747 110.822,30.949 109.228,31.041 108.579 C 31.132 107.930,31.300 106.745,31.412 105.946 C 32.044 101.464,32.250 100.818,33.822 98.380 C 36.415 94.358,41.744 91.893,46.300 92.607 M72.078 92.898 C 74.742 93.652,77.147 95.674,78.229 98.070 C 79.397 100.657,79.426 102.160,78.444 109.124 C 77.520 115.672,77.944 114.928,75.140 114.931 C 72.137 114.935,72.068 114.845,72.722 111.757 C 72.870 111.058,72.991 110.193,72.991 109.835 C 72.991 109.477,73.068 108.742,73.161 108.201 C 74.517 100.359,71.803 96.398,66.376 98.298 C 59.786 100.604,60.141 110.039,66.818 110.033 C 68.257 110.031,71.537 108.611,71.538 107.989 C 71.539 107.914,71.702 107.853,71.902 107.853 C 72.428 107.853,72.409 108.333,71.713 112.827 C 71.502 114.194,71.224 114.483,69.649 114.974 C 66.529 115.946,62.494 115.384,60.100 113.644 C 57.065 111.439,55.333 107.158,56.105 103.768 C 56.196 103.368,56.344 102.701,56.433 102.284 C 57.823 95.821,65.701 91.095,72.078 92.898 M92.309 93.600 C 92.247 94.750,91.806 97.824,91.665 98.094 C 91.527 98.358,91.241 98.411,89.953 98.411 C 88.430 98.411,87.652 98.626,87.203 99.171 C 86.985 99.435,86.428 102.437,86.428 103.348 C 86.428 103.667,86.349 104.382,86.252 104.937 C 85.974 106.540,85.693 108.544,85.512 110.213 C 85.107 113.947,85.012 114.458,84.685 114.697 C 84.308 114.973,80.145 115.032,79.727 114.768 C 79.454 114.595,79.707 110.943,80.083 109.634 C 80.177 109.305,80.254 108.701,80.254 108.293 C 80.254 107.885,80.332 107.108,80.427 106.567 C 80.522 106.026,80.729 104.603,80.886 103.404 C 81.625 97.755,81.753 97.272,82.893 95.819 C 83.674 94.825,85.052 93.792,86.127 93.396 C 87.219 92.993,92.333 93.162,92.309 93.600 M42.533 98.137 C 36.644 99.785,35.034 107.148,40.050 109.494 C 45.787 112.176,52.141 104.027,47.799 99.556 C 46.444 98.160,44.409 97.612,42.533 98.137 M285.482 109.356 C 289.786 113.702,296.586 118.003,302.497 120.115 C 319.631 126.239,338.162 126.358,354.426 120.450 C 361.495 117.881,369.516 112.837,372.884 108.840 C 374.329 107.125,374.037 108.329,371.977 112.574 C 360.912 135.371,333.541 145.444,309.850 135.435 C 298.815 130.774,288.571 120.338,284.463 109.574 C 283.710 107.602,283.740 107.596,285.482 109.356 M293.636 134.746 C 299.622 136.005,301.856 143.303,297.568 147.591 C 293.688 151.471,287.102 150.058,285.073 144.911 C 282.928 139.469,287.920 133.544,293.636 134.746 " stroke="none" fill="#ffffff" fill-rule="evenodd"></path><path id="path2" d="M348.842 77.942 L 347.526 78.309 347.526 80.360 C 347.526 82.738,347.552 82.701,345.892 82.704 L 344.712 82.705 344.712 83.795 L 344.712 84.884 346.074 84.975 L 347.435 85.066 347.532 91.239 C 347.644 98.336,347.695 98.616,349.101 99.853 C 350.099 100.732,351.381 101.052,353.216 100.882 C 354.985 100.717,355.074 100.646,355.000 99.440 L 354.938 98.436 353.596 98.461 C 350.729 98.516,350.522 97.994,350.522 90.695 L 350.522 85.066 352.882 84.975 L 355.243 84.884 355.297 83.846 C 355.362 82.599,355.438 82.634,352.519 82.569 L 350.522 82.524 350.471 80.027 C 350.444 78.654,350.362 77.541,350.290 77.553 C 350.218 77.566,349.567 77.741,348.842 77.942 M312.448 82.589 C 311.028 82.960,309.740 83.787,308.861 84.892 C 308.087 85.866,307.944 85.790,307.944 84.408 C 307.944 82.815,307.785 82.614,306.530 82.617 C 305.959 82.619,305.390 82.685,305.264 82.765 C 305.084 82.880,305.046 85.534,305.083 95.427 L 305.129 107.944 306.566 107.997 C 308.418 108.066,308.301 108.413,308.304 102.867 L 308.307 98.153 309.169 98.999 C 312.872 102.634,319.298 101.032,321.442 95.938 C 324.578 88.487,319.385 80.780,312.448 82.589 M364.866 82.496 C 358.765 84.088,356.313 92.777,360.471 98.072 C 362.548 100.717,367.720 101.726,371.953 100.311 C 373.124 99.920,373.162 99.874,373.024 99.010 C 372.836 97.831,372.819 97.824,371.141 98.249 C 365.867 99.582,361.714 97.391,361.473 93.146 L 361.416 92.147 367.817 92.099 L 374.217 92.052 374.217 90.552 C 374.217 84.849,369.947 81.170,364.866 82.496 M385.998 82.502 C 384.477 83.045,383.444 83.962,382.815 85.324 C 382.322 86.393,382.122 86.140,382.063 84.372 C 382.003 82.579,381.966 82.542,380.288 82.649 L 379.392 82.705 379.395 85.384 C 379.396 86.857,379.417 90.881,379.440 94.326 L 379.483 100.590 380.935 100.590 L 382.388 100.590 382.391 95.915 C 382.398 87.500,383.451 85.165,387.245 85.158 L 388.198 85.157 388.198 83.704 L 388.198 82.251 387.426 82.259 C 387.002 82.264,386.359 82.373,385.998 82.502 M274.293 82.736 C 274.226 82.802,274.172 86.552,274.172 91.069 C 274.172 104.172,273.838 105.393,270.109 105.953 L 269.229 106.085 269.346 106.971 C 269.559 108.575,269.595 108.594,271.588 108.124 C 274.700 107.390,276.222 105.778,276.962 102.429 C 277.402 100.439,277.410 82.893,276.971 82.725 C 276.582 82.576,274.444 82.584,274.293 82.736 M283.653 89.197 C 283.726 96.701,283.845 97.410,285.314 99.079 C 287.635 101.716,292.158 101.558,294.785 98.750 C 295.849 97.612,295.880 97.622,296.071 99.183 L 296.232 100.499 297.484 100.499 L 298.736 100.499 298.698 91.696 C 298.669 85.158,298.604 82.857,298.444 82.753 C 298.326 82.675,297.658 82.633,296.959 82.659 L 295.688 82.705 295.597 88.879 C 295.510 94.781,295.489 95.085,295.111 95.791 C 293.326 99.125,288.840 99.410,287.307 96.287 L 286.791 95.234 286.735 89.033 L 286.678 82.833 286.281 82.726 C 286.062 82.668,285.367 82.618,284.736 82.617 L 283.589 82.615 283.653 89.197 M325.091 82.851 C 325.017 83.044,326.543 87.165,327.189 88.516 C 327.285 88.715,327.905 90.227,328.568 91.875 C 329.231 93.522,330.190 95.892,330.699 97.140 C 331.267 98.533,331.627 99.690,331.630 100.136 C 331.640 101.680,329.250 104.594,327.047 105.722 C 325.781 106.370,325.810 106.280,326.292 108.070 C 326.531 108.959,326.845 108.962,328.504 108.090 C 331.529 106.500,333.376 103.909,335.834 97.805 C 336.283 96.690,336.723 95.615,336.813 95.415 C 337.077 94.825,337.641 93.384,338.553 90.967 C 339.024 89.719,339.915 87.373,340.534 85.755 C 341.426 83.424,341.606 82.793,341.401 82.714 C 340.883 82.516,338.676 82.612,338.487 82.842 C 338.244 83.137,334.430 94.294,333.902 96.255 C 333.614 97.325,333.382 97.067,332.731 94.953 C 332.410 93.909,331.805 92.169,331.388 91.087 C 330.971 90.005,330.392 88.453,330.102 87.637 C 329.389 85.636,328.404 83.120,328.224 82.842 C 328.015 82.519,325.215 82.527,325.091 82.851 M368.714 84.873 C 370.223 85.575,371.439 87.709,371.278 89.374 L 371.221 89.968 366.409 89.968 L 361.598 89.968 361.612 89.217 C 361.676 85.828,365.604 83.425,368.714 84.873 M315.654 85.051 C 319.425 86.627,320.333 94.020,317.146 97.207 C 314.805 99.549,310.654 98.891,308.896 95.899 C 308.316 94.914,308.060 90.511,308.484 88.815 C 309.268 85.676,312.761 83.842,315.654 85.051 M23.588 85.433 C 19.468 86.434,16.341 89.951,16.341 93.586 C 16.341 96.419,16.696 96.984,22.186 102.904 C 25.073 106.017,25.354 107.634,23.293 109.263 C 20.926 111.134,18.353 110.437,16.989 107.556 C 16.438 106.393,16.650 106.415,14.934 107.342 C 11.124 109.399,11.335 109.132,12.150 110.872 C 14.175 115.202,19.322 116.549,24.448 114.091 C 28.255 112.266,31.039 106.537,29.660 103.365 C 28.782 101.344,28.528 101.006,25.339 97.604 C 21.941 93.978,21.607 93.529,21.607 92.575 C 21.607 91.316,22.945 90.241,24.512 90.241 C 25.849 90.241,26.403 90.599,28.009 92.502 L 28.461 93.039 30.254 91.701 C 33.272 89.449,33.171 89.729,31.624 87.901 C 29.658 85.578,26.715 84.674,23.588 85.433 M99.138 87.013 C 98.488 87.433,97.822 87.860,97.657 87.964 C 94.683 89.833,95.002 89.120,94.241 95.597 C 93.994 97.703,93.723 99.784,93.520 101.135 C 93.423 101.784,93.216 103.296,93.060 104.494 C 92.905 105.692,92.700 107.245,92.605 107.944 C 91.617 115.202,91.449 114.564,94.358 114.568 C 96.732 114.572,96.868 114.496,97.039 113.078 C 97.226 111.542,97.678 108.240,97.905 106.764 C 98.021 106.015,98.161 104.952,98.218 104.403 C 98.405 102.584,98.469 102.655,103.374 110.101 C 106.677 115.113,105.956 114.590,109.482 114.530 L 112.425 114.480 107.597 107.711 C 104.942 103.988,102.771 100.802,102.775 100.630 C 102.779 100.349,104.412 98.547,107.532 95.379 L 108.641 94.254 108.418 92.928 C 107.866 89.638,107.718 89.138,107.417 89.549 C 107.211 89.829,105.087 92.193,103.297 94.133 C 102.739 94.739,101.649 95.949,100.876 96.824 C 99.104 98.829,98.803 98.608,99.306 95.673 C 99.399 95.132,99.568 93.913,99.682 92.964 C 99.796 92.015,100.010 90.394,100.159 89.361 C 100.307 88.328,100.404 87.206,100.373 86.867 L 100.318 86.251 99.138 87.013 M195.733 92.053 L 195.733 97.135 190.695 97.183 L 185.656 97.231 185.646 99.047 L 185.637 100.862 185.698 99.095 L 185.759 97.328 190.792 97.279 L 195.824 97.231 195.872 92.192 L 195.920 87.154 197.730 87.154 L 199.540 87.154 199.589 92.192 L 199.637 97.231 204.766 97.235 L 209.896 97.240 204.812 97.187 L 199.728 97.135 199.728 92.053 L 199.728 86.972 197.730 86.972 L 195.733 86.972 195.733 92.053 M43.940 92.894 C 41.674 93.237,40.760 93.475,39.613 94.019 C 36.859 95.324,34.724 97.334,33.396 99.868 C 32.386 101.794,32.215 102.630,31.234 110.395 C 31.140 111.144,30.970 112.369,30.856 113.118 C 30.742 113.867,30.583 115.093,30.502 115.842 C 30.421 116.591,30.267 117.898,30.159 118.747 C 29.824 121.376,29.606 121.127,32.183 121.068 C 34.407 121.017,34.408 121.017,34.453 120.563 C 35.111 114.046,35.436 112.911,36.444 113.624 C 42.284 117.753,52.187 112.992,54.030 105.171 C 55.613 98.448,50.262 91.936,43.940 92.894 M67.907 92.966 C 65.930 93.236,65.430 93.383,63.731 94.195 C 55.967 97.906,53.932 108.531,60.100 113.158 C 62.851 115.222,67.345 115.697,70.414 114.248 C 71.162 113.895,71.209 113.744,71.601 110.440 C 71.841 108.421,71.809 108.355,70.916 109.036 C 69.267 110.293,66.518 110.768,64.779 110.095 C 58.096 107.509,61.167 97.588,68.644 97.606 C 72.935 97.617,74.738 101.051,73.738 107.308 C 73.635 107.957,73.459 109.224,73.347 110.123 C 73.236 111.021,73.063 112.305,72.962 112.975 C 72.721 114.585,72.704 114.571,74.874 114.571 C 77.243 114.571,77.381 114.481,77.546 112.822 C 77.738 110.899,78.053 108.412,78.245 107.308 C 78.709 104.638,78.852 102.145,78.620 100.772 C 77.762 95.681,73.066 92.260,67.907 92.966 M86.587 93.744 C 83.370 94.848,82.192 96.582,81.626 101.044 C 81.462 102.342,81.251 103.936,81.159 104.585 C 81.066 105.234,80.865 106.745,80.710 107.944 C 80.556 109.142,80.350 110.654,80.253 111.303 C 79.764 114.552,79.776 114.571,82.240 114.571 C 84.811 114.571,84.520 115.148,85.348 108.398 C 85.440 107.649,85.645 106.096,85.803 104.948 C 85.961 103.799,86.153 102.247,86.230 101.498 C 86.509 98.774,87.023 98.231,89.328 98.227 C 90.179 98.225,90.962 98.164,91.066 98.091 C 91.301 97.926,91.664 95.972,91.733 94.507 L 91.784 93.418 89.787 93.374 C 88.107 93.338,87.598 93.397,86.587 93.744 M46.269 97.970 C 50.744 99.840,50.737 106.206,46.257 109.174 C 41.104 112.588,35.208 108.506,37.034 102.789 C 38.284 98.877,42.799 96.521,46.269 97.970 M195.693 106.128 L 195.744 111.303 197.736 111.303 L 199.728 111.303 199.728 106.234 C 199.728 102.953,199.793 101.133,199.914 101.073 C 200.016 101.022,199.996 101.002,199.868 101.027 C 199.689 101.064,199.626 102.203,199.589 106.098 L 199.540 111.121 197.727 111.121 L 195.915 111.121 195.915 106.037 C 195.915 103.241,195.853 100.953,195.778 100.953 C 195.704 100.953,195.665 103.282,195.693 106.128 " stroke="none" fill="#383431" fill-rule="evenodd"></path><path id="path3" d="M359.514 31.873 C 354.757 33.207,352.782 38.747,355.626 42.783 C 358.697 47.142,365.253 46.617,367.623 41.821 C 370.286 36.433,365.256 30.262,359.514 31.873 M285.045 42.738 C 280.375 44.407,281.583 51.256,286.547 51.256 C 287.967 51.256,289.006 50.808,289.913 49.804 C 292.918 46.478,289.295 41.219,285.045 42.738 M324.103 43.750 C 306.732 45.632,291.003 57.192,284.866 72.588 C 284.132 74.430,284.173 74.450,285.656 72.975 C 305.967 52.769,352.378 52.751,372.150 72.943 C 373.919 74.749,373.947 74.702,372.717 71.993 C 364.114 53.040,344.348 41.556,324.103 43.750 M102.313 61.528 C 100.507 62.348,99.913 63.908,98.777 70.813 C 98.458 72.749,98.075 74.720,97.961 75.011 C 97.825 75.357,97.109 75.669,94.871 76.356 C 93.972 76.631,92.665 77.043,91.966 77.270 C 91.266 77.497,89.908 77.928,88.946 78.227 C 84.096 79.738,82.842 82.286,85.686 84.850 C 86.283 85.388,89.557 87.154,89.959 87.154 C 90.002 87.154,90.742 87.481,91.602 87.880 C 93.666 88.838,93.811 88.823,95.943 87.425 C 96.932 86.777,97.773 86.246,97.812 86.246 C 97.956 86.246,98.956 85.446,98.956 85.331 C 98.956 85.264,97.383 84.582,95.461 83.815 C 91.520 82.243,91.348 82.158,91.604 81.912 C 91.845 81.682,94.595 80.774,100.045 79.125 C 101.354 78.729,101.670 78.573,101.751 78.283 C 101.845 77.950,102.065 76.784,102.492 74.353 C 102.650 73.454,102.855 72.351,102.946 71.902 C 103.038 71.453,103.164 70.717,103.226 70.268 C 103.605 67.525,103.715 67.591,106.500 72.226 L 108.869 76.169 109.677 76.143 C 110.122 76.129,111.262 75.897,112.211 75.626 C 113.159 75.356,114.344 75.028,114.843 74.896 C 115.343 74.764,116.398 74.486,117.187 74.278 C 119.613 73.638,119.789 73.790,118.451 75.363 C 117.989 75.906,117.264 76.759,116.840 77.258 C 116.416 77.758,115.282 79.085,114.321 80.207 C 112.313 82.553,112.354 82.400,113.274 84.120 C 116.664 90.462,116.938 91.023,116.741 91.225 C 116.568 91.404,115.604 91.189,111.938 90.154 C 109.505 89.467,109.170 89.488,109.476 90.309 C 109.555 90.521,109.675 91.103,109.742 91.602 C 110.113 94.335,110.282 94.647,111.571 94.978 C 111.873 95.055,113.223 95.458,114.571 95.874 C 119.911 97.519,121.497 97.397,122.593 95.257 C 123.407 93.667,123.157 92.789,120.437 87.699 C 117.335 81.893,117.549 82.781,118.879 81.210 C 119.451 80.534,120.852 78.879,121.992 77.531 C 123.133 76.182,124.483 74.602,124.993 74.019 C 127.289 71.391,127.474 69.246,125.465 68.526 C 124.223 68.081,124.013 68.116,117.295 69.909 C 115.747 70.322,114.194 70.729,113.845 70.814 C 113.495 70.899,112.855 71.068,112.423 71.189 C 111.413 71.471,111.522 71.593,108.940 67.272 C 105.362 61.284,104.498 60.535,102.313 61.528 M350.502 80.073 C 350.502 81.421,350.531 81.972,350.566 81.298 C 350.601 80.624,350.601 79.521,350.566 78.847 C 350.531 78.173,350.502 78.724,350.502 80.073 M274.073 82.842 C 274.025 82.966,274.008 86.909,274.034 91.602 L 274.081 100.136 274.172 91.375 C 274.222 86.557,274.239 82.615,274.211 82.615 C 274.183 82.615,274.121 82.717,274.073 82.842 M283.512 88.243 C 283.512 91.189,283.537 92.394,283.567 90.921 C 283.598 89.448,283.598 87.038,283.567 85.565 C 283.537 84.092,283.512 85.297,283.512 88.243 M313.348 84.740 C 313.573 84.784,313.900 84.782,314.074 84.737 C 314.247 84.691,314.063 84.656,313.663 84.658 C 313.264 84.660,313.122 84.697,313.348 84.740 M350.513 85.204 C 350.465 85.331,350.447 87.721,350.474 90.515 L 350.522 95.597 350.613 90.286 C 350.663 87.365,350.681 84.975,350.652 84.975 C 350.624 84.975,350.562 85.078,350.513 85.204 M100.451 86.791 C 100.451 87.140,100.488 87.283,100.534 87.108 C 100.579 86.934,100.579 86.648,100.534 86.473 C 100.488 86.298,100.451 86.441,100.451 86.791 M196.777 86.925 C 197.301 86.961,198.159 86.961,198.684 86.925 C 199.208 86.888,198.779 86.858,197.730 86.858 C 196.682 86.858,196.253 86.888,196.777 86.925 M379.383 94.235 C 379.383 97.680,379.407 99.090,379.437 97.367 C 379.467 95.645,379.467 92.826,379.437 91.103 C 379.407 89.380,379.383 90.790,379.383 94.235 M106.572 90.377 L 105.946 91.058 106.627 90.432 C 107.261 89.850,107.392 89.696,107.253 89.696 C 107.223 89.696,106.916 90.002,106.572 90.377 M366.409 89.877 L 361.598 89.977 366.353 90.018 C 369.373 90.044,371.150 89.993,371.221 89.877 C 371.283 89.778,371.308 89.714,371.277 89.737 C 371.246 89.759,369.056 89.823,366.409 89.877 M374.263 90.695 C 374.265 91.094,374.302 91.236,374.345 91.010 C 374.389 90.784,374.387 90.457,374.342 90.284 C 374.296 90.110,374.261 90.295,374.263 90.695 M99.906 91.330 C 99.906 91.680,99.943 91.823,99.989 91.648 C 100.035 91.473,100.035 91.187,99.989 91.012 C 99.943 90.837,99.906 90.980,99.906 91.330 M382.467 95.597 C 382.467 98.293,382.492 99.422,382.523 98.104 C 382.554 96.787,382.554 94.581,382.523 93.202 C 382.493 91.823,382.467 92.901,382.467 95.597 M43.352 92.911 C 43.578 92.954,43.905 92.953,44.078 92.907 C 44.252 92.862,44.067 92.826,43.668 92.828 C 43.268 92.830,43.126 92.868,43.352 92.911 M45.438 92.908 C 45.613 92.953,45.899 92.953,46.074 92.908 C 46.248 92.862,46.105 92.825,45.756 92.825 C 45.406 92.825,45.263 92.862,45.438 92.908 M67.864 92.911 C 68.090 92.954,68.417 92.953,68.590 92.907 C 68.764 92.862,68.579 92.826,68.180 92.828 C 67.780 92.830,67.638 92.868,67.864 92.911 M69.950 92.908 C 70.125 92.953,70.411 92.953,70.586 92.908 C 70.760 92.862,70.617 92.825,70.268 92.825 C 69.918 92.825,69.775 92.862,69.950 92.908 M16.206 93.600 C 16.208 93.999,16.245 94.141,16.288 93.915 C 16.332 93.689,16.330 93.363,16.285 93.189 C 16.239 93.015,16.204 93.200,16.206 93.600 M103.211 94.099 L 102.678 94.689 103.268 94.156 C 103.818 93.659,103.942 93.509,103.802 93.509 C 103.770 93.509,103.505 93.774,103.211 94.099 M91.735 94.598 C 91.735 94.948,91.773 95.091,91.818 94.916 C 91.864 94.741,91.864 94.455,91.818 94.281 C 91.773 94.106,91.735 94.249,91.735 94.598 M51.203 95.200 C 51.203 95.231,51.468 95.497,51.793 95.790 L 52.383 96.323 51.850 95.733 C 51.353 95.183,51.203 95.060,51.203 95.200 M106.935 96.005 L 106.310 96.686 106.990 96.061 C 107.624 95.478,107.755 95.325,107.616 95.325 C 107.586 95.325,107.279 95.631,106.935 96.005 M60.095 96.732 L 58.920 97.957 60.145 96.782 C 60.819 96.136,61.371 95.585,61.371 95.557 C 61.371 95.423,61.186 95.593,60.095 96.732 M298.745 97.867 C 298.745 98.616,298.777 98.922,298.816 98.547 C 298.855 98.173,298.855 97.560,298.816 97.186 C 298.777 96.811,298.745 97.118,298.745 97.867 M100.052 97.587 C 99.717 97.933,99.362 98.165,99.262 98.104 C 99.156 98.038,99.139 98.085,99.221 98.218 C 99.336 98.404,100.772 97.288,100.772 97.013 C 100.772 96.880,100.621 97.000,100.052 97.587 M209.933 99.089 L 209.896 100.947 204.948 100.999 L 200.000 101.050 204.953 101.092 C 208.928 101.126,209.925 101.087,209.999 100.894 C 210.050 100.762,210.064 99.884,210.031 98.942 L 209.971 97.231 209.933 99.089 M26.237 98.593 C 26.830 99.192,27.356 99.682,27.406 99.682 C 27.456 99.682,27.011 99.192,26.419 98.593 C 25.826 97.994,25.300 97.503,25.250 97.503 C 25.200 97.503,25.644 97.994,26.237 98.593 M43.532 97.632 C 43.756 97.675,44.124 97.675,44.349 97.632 C 44.573 97.588,44.389 97.553,43.940 97.553 C 43.491 97.553,43.307 97.588,43.532 97.632 M68.137 97.634 C 68.413 97.675,68.821 97.674,69.045 97.631 C 69.268 97.588,69.042 97.554,68.543 97.555 C 68.044 97.557,67.861 97.592,68.137 97.634 M93.733 98.774 C 93.733 99.124,93.770 99.267,93.816 99.092 C 93.861 98.917,93.861 98.631,93.816 98.457 C 93.770 98.282,93.733 98.425,93.733 98.774 M103.671 99.455 L 102.678 100.499 103.722 99.507 C 104.692 98.585,104.849 98.411,104.715 98.411 C 104.686 98.411,104.216 98.881,103.671 99.455 M47.390 98.650 C 47.390 98.681,47.655 98.946,47.980 99.240 L 48.570 99.773 48.037 99.183 C 47.540 98.633,47.390 98.509,47.390 98.650 M38.856 99.773 C 38.415 100.222,38.095 100.590,38.145 100.590 C 38.195 100.590,38.597 100.222,39.038 99.773 C 39.479 99.324,39.799 98.956,39.749 98.956 C 39.699 98.956,39.297 99.324,38.856 99.773 M20.064 100.772 C 20.454 101.171,20.814 101.498,20.864 101.498 C 20.913 101.498,20.635 101.171,20.245 100.772 C 19.855 100.372,19.495 100.045,19.445 100.045 C 19.395 100.045,19.673 100.372,20.064 100.772 M188.153 101.089 C 189.526 101.120,191.773 101.120,193.146 101.089 C 194.519 101.058,193.395 101.033,190.649 101.033 C 187.903 101.033,186.779 101.058,188.153 101.089 M54.342 102.678 C 54.343 103.177,54.378 103.360,54.420 103.084 C 54.462 102.808,54.461 102.400,54.417 102.176 C 54.374 101.953,54.340 102.179,54.342 102.678 M49.618 103.132 C 49.618 103.581,49.654 103.765,49.697 103.541 C 49.740 103.316,49.740 102.948,49.697 102.724 C 49.654 102.499,49.618 102.683,49.618 103.132 M73.963 103.858 C 73.963 104.707,73.994 105.054,74.032 104.630 C 74.070 104.206,74.070 103.511,74.032 103.087 C 73.994 102.662,73.963 103.010,73.963 103.858 M22.152 103.007 C 22.152 103.039,22.417 103.304,22.742 103.597 L 23.332 104.131 22.799 103.541 C 22.301 102.991,22.152 102.867,22.152 103.007 M36.737 104.857 C 36.738 105.556,36.770 105.820,36.810 105.443 C 36.849 105.066,36.848 104.494,36.808 104.172 C 36.768 103.850,36.736 104.158,36.737 104.857 M61.060 104.857 C 61.061 105.356,61.096 105.539,61.138 105.263 C 61.180 104.987,61.179 104.579,61.136 104.355 C 61.092 104.132,61.058 104.358,61.060 104.857 M56.348 105.493 C 56.348 106.241,56.380 106.548,56.419 106.173 C 56.458 105.799,56.458 105.186,56.419 104.812 C 56.380 104.437,56.348 104.744,56.348 105.493 M85.743 105.311 C 85.743 105.660,85.781 105.803,85.826 105.629 C 85.872 105.454,85.872 105.168,85.826 104.993 C 85.781 104.818,85.743 104.961,85.743 105.311 M24.554 106.945 C 24.554 107.295,24.592 107.438,24.637 107.263 C 24.683 107.088,24.683 106.802,24.637 106.627 C 24.592 106.453,24.554 106.596,24.554 106.945 M47.380 108.171 L 46.754 108.852 47.435 108.226 C 48.069 107.643,48.200 107.490,48.061 107.490 C 48.031 107.490,47.724 107.796,47.380 108.171 M37.767 108.273 C 37.767 108.304,38.032 108.570,38.357 108.863 L 38.947 109.396 38.414 108.806 C 37.917 108.256,37.767 108.133,37.767 108.273 M284.431 108.942 C 285.164 112.522,290.965 121.257,295.527 125.651 C 319.777 149.008,360.337 140.793,373.057 109.947 C 373.794 108.158,373.765 108.128,372.557 109.411 C 359.031 123.781,329.127 129.135,305.674 121.386 C 297.229 118.596,288.956 113.675,284.959 109.065 L 284.301 108.307 284.431 108.942 M77.936 109.669 C 77.936 110.018,77.973 110.161,78.019 109.986 C 78.065 109.812,78.065 109.526,78.019 109.351 C 77.973 109.176,77.936 109.319,77.936 109.669 M92.280 109.669 C 92.280 110.018,92.317 110.161,92.363 109.986 C 92.409 109.812,92.409 109.526,92.363 109.351 C 92.317 109.176,92.280 109.319,92.280 109.669 M71.581 110.758 C 71.581 111.108,71.618 111.251,71.664 111.076 C 71.710 110.901,71.710 110.615,71.664 110.440 C 71.618 110.266,71.581 110.409,71.581 110.758 M26.956 112.256 L 26.055 113.209 27.009 112.308 C 27.533 111.813,27.962 111.384,27.962 111.355 C 27.962 111.220,27.794 111.370,26.956 112.256 M97.182 112.029 C 97.182 112.379,97.220 112.522,97.265 112.347 C 97.311 112.172,97.311 111.886,97.265 111.711 C 97.220 111.537,97.182 111.680,97.182 112.029 M30.909 112.392 C 30.909 112.742,30.946 112.885,30.992 112.710 C 31.038 112.535,31.038 112.249,30.992 112.074 C 30.946 111.900,30.909 112.043,30.909 112.392 M84.836 112.392 C 84.836 112.742,84.873 112.885,84.919 112.710 C 84.964 112.535,84.964 112.249,84.919 112.074 C 84.873 111.900,84.836 112.043,84.836 112.392 M106.111 114.344 C 106.447 114.741,106.544 114.751,109.470 114.712 L 112.483 114.671 109.496 114.617 C 106.987 114.570,106.450 114.512,106.137 114.249 C 105.766 113.937,105.766 113.937,106.111 114.344 M30.001 119.110 C 30.001 119.460,30.039 119.603,30.084 119.428 C 30.130 119.253,30.130 118.967,30.084 118.793 C 30.039 118.618,30.001 118.761,30.001 119.110 M29.851 120.744 L 29.868 121.198 32.032 121.250 C 33.222 121.278,34.260 121.237,34.339 121.159 C 34.417 121.081,33.470 121.042,32.233 121.072 C 30.009 121.127,29.984 121.123,29.909 120.709 C 29.840 120.326,29.835 120.329,29.851 120.744 M291.421 135.050 C 285.454 135.559,282.774 143.037,287.046 147.255 C 290.108 150.277,294.377 150.326,297.313 147.372 C 302.125 142.530,298.269 134.467,291.421 135.050 " stroke="none" fill="#e46e2e" fill-rule="evenodd"></path><path id="path4" d="M359.881 31.428 C 356.199 32.150,353.441 36.093,354.056 39.755 C 355.285 47.066,364.752 48.494,367.952 41.852 C 370.570 36.420,365.806 30.267,359.881 31.428 M364.329 32.323 C 370.102 35.078,369.530 43.395,363.427 45.454 C 358.350 47.166,353.169 42.240,354.529 36.993 C 355.656 32.643,360.331 30.415,364.329 32.323 M285.246 42.294 C 280.698 43.678,280.684 50.172,285.227 51.502 C 289.204 52.666,292.641 48.534,290.809 44.790 C 289.818 42.764,287.346 41.655,285.246 42.294 M287.931 42.701 C 289.530 43.103,291.058 45.173,291.058 46.936 C 291.058 50.747,285.978 52.779,283.410 49.994 C 280.186 46.498,283.267 41.527,287.931 42.701 M325.738 43.497 C 325.887 43.529,327.767 43.584,329.914 43.618 C 332.061 43.652,333.409 43.623,332.910 43.554 C 332.033 43.431,325.186 43.377,325.738 43.497 M324.423 43.705 C 324.649 43.749,324.976 43.747,325.150 43.702 C 325.323 43.656,325.138 43.621,324.739 43.623 C 324.340 43.625,324.198 43.662,324.423 43.705 M320.109 44.169 C 319.560 44.271,319.192 44.383,319.292 44.417 C 319.392 44.452,320.086 44.367,320.835 44.230 C 321.584 44.092,321.952 43.980,321.652 43.981 C 321.353 43.982,320.658 44.067,320.109 44.169 M337.449 44.316 C 338.448 44.504,339.346 44.632,339.446 44.600 C 339.675 44.527,336.489 43.933,335.996 43.957 C 335.797 43.966,336.450 44.128,337.449 44.316 M317.113 44.848 C 316.650 45.047,317.128 45.047,317.749 44.848 C 318.113 44.731,318.131 44.702,317.839 44.697 C 317.640 44.694,317.313 44.762,317.113 44.848 M340.082 44.848 C 340.703 45.047,341.180 45.047,340.717 44.848 C 340.517 44.762,340.191 44.694,339.991 44.697 C 339.699 44.702,339.717 44.731,340.082 44.848 M341.897 45.311 C 342.347 45.453,342.796 45.564,342.896 45.558 C 343.214 45.538,341.822 45.057,341.443 45.055 C 341.244 45.055,341.448 45.170,341.897 45.311 M315.116 45.393 C 314.887 45.491,314.853 45.549,315.025 45.549 C 315.175 45.549,315.461 45.478,315.660 45.393 C 315.889 45.294,315.923 45.237,315.751 45.237 C 315.601 45.237,315.315 45.307,315.116 45.393 M312.963 46.052 C 312.478 46.201,312.114 46.355,312.153 46.394 C 312.238 46.480,314.117 45.943,314.117 45.833 C 314.117 45.719,313.936 45.753,312.963 46.052 M344.606 46.132 C 345.148 46.324,345.622 46.450,345.660 46.411 C 345.745 46.326,344.091 45.750,343.817 45.769 C 343.710 45.776,344.065 45.940,344.606 46.132 M309.759 47.323 C 308.711 47.780,307.771 48.234,307.671 48.331 C 307.571 48.429,307.980 48.291,308.579 48.025 C 309.178 47.760,310.179 47.336,310.803 47.084 C 311.842 46.664,312.158 46.475,311.802 46.487 C 311.727 46.489,310.808 46.865,309.759 47.323 M345.892 46.536 C 345.892 46.579,346.280 46.761,346.754 46.941 C 347.438 47.199,350.310 48.505,351.248 48.985 C 351.368 49.046,351.367 49.009,351.247 48.877 C 350.915 48.513,345.892 46.317,345.892 46.536 M305.901 49.218 C 305.527 49.416,305.220 49.618,305.220 49.668 C 305.220 49.717,305.547 49.591,305.946 49.387 C 306.346 49.183,306.673 48.977,306.673 48.930 C 306.673 48.811,306.671 48.811,305.901 49.218 M351.521 49.084 C 351.521 49.134,352.072 49.479,352.746 49.852 C 358.703 53.146,364.966 59.031,368.890 65.019 C 369.538 66.009,370.108 66.818,370.156 66.818 C 370.270 66.818,370.184 66.677,368.888 64.730 C 365.498 59.637,361.063 55.199,355.697 51.528 C 353.970 50.346,351.521 48.913,351.521 49.084 M303.296 50.761 C 302.407 51.317,301.557 51.896,301.407 52.048 C 301.257 52.200,301.883 51.847,302.798 51.264 C 305.163 49.757,305.140 49.773,305.021 49.761 C 304.961 49.755,304.185 50.205,303.296 50.761 M299.410 53.485 C 296.227 55.924,292.575 59.680,290.242 62.914 C 289.382 64.107,290.172 63.227,291.790 61.189 C 293.750 58.721,296.642 55.859,299.094 53.960 C 300.771 52.661,301.217 52.273,300.999 52.298 C 300.974 52.300,300.259 52.835,299.410 53.485 M323.014 57.931 C 320.218 58.176,320.218 58.261,323.014 58.128 C 326.133 57.980,331.630 57.979,334.907 58.126 C 336.538 58.199,337.091 58.185,336.450 58.086 C 334.941 57.854,325.185 57.741,323.014 57.931 M319.339 58.413 C 319.565 58.456,319.892 58.454,320.066 58.409 C 320.239 58.363,320.054 58.328,319.655 58.330 C 319.256 58.332,319.114 58.369,319.339 58.413 M340.354 58.732 C 341.952 58.977,343.821 59.303,344.507 59.457 C 345.193 59.611,345.847 59.730,345.960 59.721 C 346.827 59.655,340.896 58.552,338.811 58.392 C 338.024 58.331,338.676 58.475,340.354 58.732 M316.568 58.670 C 313.310 59.257,309.515 60.097,309.625 60.207 C 309.663 60.245,310.831 60.027,312.221 59.721 C 313.611 59.416,315.689 59.017,316.838 58.834 C 317.988 58.652,318.602 58.503,318.202 58.504 C 317.803 58.505,317.068 58.580,316.568 58.670 M347.072 60.022 C 347.571 60.161,348.062 60.267,348.162 60.259 C 348.469 60.233,346.914 59.764,346.527 59.767 C 346.328 59.768,346.573 59.883,347.072 60.022 M306.764 60.986 C 302.113 62.453,298.940 63.778,295.506 65.687 C 293.638 66.726,291.602 68.033,291.602 68.193 C 291.602 68.243,292.072 67.967,292.646 67.579 C 295.790 65.457,300.723 63.160,305.402 61.640 C 307.149 61.072,308.783 60.540,309.033 60.459 C 309.283 60.377,309.365 60.308,309.215 60.305 C 309.065 60.302,307.962 60.608,306.764 60.986 M348.979 60.495 C 349.328 60.605,350.921 61.126,352.519 61.653 C 354.117 62.180,355.588 62.665,355.788 62.731 C 356.089 62.831,356.101 62.819,355.859 62.661 C 355.451 62.396,349.753 60.520,348.979 60.396 L 348.343 60.295 348.979 60.495 M102.502 61.131 C 100.619 61.658,99.745 63.672,98.692 69.905 C 97.719 75.664,97.979 75.137,95.778 75.808 C 94.880 76.082,93.572 76.491,92.873 76.717 C 85.985 78.947,86.275 78.832,85.241 79.740 C 83.500 81.268,83.695 83.528,85.716 85.234 C 86.208 85.649,89.472 87.335,89.783 87.335 C 89.823 87.335,90.572 87.668,91.446 88.073 C 93.713 89.126,93.763 89.128,95.143 88.212 C 95.792 87.781,96.405 87.386,96.505 87.334 C 97.319 86.907,99.126 85.629,99.205 85.424 C 99.326 85.109,99.439 85.173,97.140 84.252 C 96.092 83.832,94.976 83.374,94.662 83.233 C 94.347 83.093,94.043 82.978,93.986 82.978 C 93.929 82.978,93.410 82.767,92.833 82.509 L 91.784 82.039 92.692 81.707 C 93.191 81.525,94.539 81.082,95.688 80.723 C 102.544 78.579,101.922 78.947,102.300 76.804 C 102.449 75.956,102.701 74.567,102.860 73.718 C 103.019 72.869,103.224 71.684,103.317 71.085 C 103.781 68.076,103.687 68.033,106.360 72.466 C 108.987 76.821,108.862 76.669,109.678 76.493 L 110.304 76.357 109.584 76.263 L 108.863 76.169 106.497 72.226 C 103.716 67.591,103.605 67.525,103.226 70.268 C 103.164 70.717,103.038 71.453,102.946 71.902 C 102.855 72.351,102.650 73.454,102.492 74.353 C 102.065 76.784,101.845 77.950,101.751 78.283 C 101.670 78.573,101.354 78.729,100.045 79.125 C 94.595 80.774,91.845 81.682,91.604 81.912 C 91.348 82.158,91.520 82.243,95.461 83.815 C 97.383 84.582,98.956 85.264,98.956 85.331 C 98.956 85.446,97.956 86.246,97.812 86.246 C 97.773 86.246,96.932 86.777,95.943 87.425 C 93.811 88.823,93.666 88.838,91.602 87.880 C 90.742 87.481,90.002 87.154,89.959 87.154 C 89.557 87.154,86.283 85.388,85.686 84.850 C 82.842 82.286,84.096 79.738,88.946 78.227 C 89.908 77.928,91.266 77.497,91.966 77.270 C 92.665 77.043,93.972 76.631,94.871 76.356 C 97.109 75.669,97.825 75.357,97.961 75.011 C 98.075 74.720,98.458 72.749,98.777 70.813 C 99.913 63.908,100.507 62.348,102.313 61.528 C 104.498 60.535,105.362 61.284,108.940 67.272 C 111.522 71.593,111.413 71.471,112.423 71.189 C 112.855 71.068,113.495 70.899,113.845 70.814 C 114.194 70.729,115.747 70.322,117.295 69.909 C 124.013 68.116,124.223 68.081,125.465 68.526 C 127.474 69.246,127.289 71.391,124.993 74.019 C 124.483 74.602,123.133 76.182,121.992 77.531 C 120.852 78.879,119.451 80.534,118.879 81.210 C 117.624 82.692,117.632 82.444,118.774 84.584 C 119.289 85.548,120.037 86.950,120.437 87.699 C 123.157 92.789,123.407 93.667,122.593 95.257 C 121.497 97.397,119.911 97.519,114.571 95.874 C 113.223 95.458,111.873 95.055,111.571 94.978 C 110.282 94.647,110.113 94.335,109.742 91.602 C 109.675 91.103,109.555 90.521,109.476 90.309 C 109.170 89.488,109.505 89.467,111.938 90.154 C 115.604 91.189,116.568 91.404,116.741 91.225 C 116.938 91.023,116.664 90.462,113.274 84.120 C 112.354 82.400,112.313 82.553,114.321 80.207 C 115.282 79.085,116.416 77.758,116.840 77.258 C 117.264 76.759,117.989 75.906,118.451 75.363 C 119.994 73.549,119.934 73.542,114.843 74.899 C 114.344 75.032,113.241 75.318,112.392 75.535 C 111.543 75.752,110.726 76.009,110.576 76.106 C 110.194 76.353,111.019 76.181,113.663 75.464 C 114.212 75.315,115.438 74.987,116.387 74.736 C 117.335 74.485,118.296 74.225,118.520 74.159 C 119.405 73.898,119.389 73.919,115.161 78.856 C 112.213 82.298,112.120 82.478,112.725 83.562 C 113.081 84.200,115.084 87.991,116.013 89.787 L 116.577 90.876 116.113 90.934 C 115.857 90.966,115.263 90.874,114.792 90.729 C 114.321 90.585,113.568 90.365,113.118 90.241 C 112.669 90.116,111.934 89.906,111.484 89.773 C 109.173 89.091,109.013 89.184,109.386 90.995 C 109.516 91.629,109.681 92.624,109.752 93.206 C 109.914 94.541,110.183 94.809,111.867 95.308 C 113.554 95.808,115.010 96.253,116.750 96.802 C 120.552 98.000,123.192 96.685,123.174 93.600 C 123.167 92.326,123.382 92.796,118.986 84.469 L 117.999 82.601 119.573 80.747 C 120.439 79.727,121.731 78.205,122.444 77.365 C 126.824 72.206,127.099 71.796,127.099 70.434 C 127.099 68.863,125.857 67.995,123.831 68.152 C 122.668 68.242,122.261 68.325,120.109 68.910 C 119.510 69.072,118.734 69.275,118.384 69.360 C 117.531 69.567,112.581 70.906,112.105 71.059 C 111.595 71.223,111.495 71.093,109.211 67.272 C 105.662 61.336,104.750 60.502,102.502 61.131 M357.422 63.422 C 358.121 63.734,359.386 64.335,360.233 64.756 C 361.081 65.178,361.804 65.492,361.841 65.456 C 361.979 65.317,356.615 62.796,356.271 62.838 C 356.205 62.846,356.723 63.109,357.422 63.422 M288.915 64.775 C 288.254 65.756,286.950 68.023,287.462 67.301 C 288.051 66.471,289.765 63.731,289.696 63.731 C 289.653 63.731,289.302 64.201,288.915 64.775 M362.066 65.614 C 362.124 65.677,362.860 66.144,363.701 66.653 C 366.596 68.405,369.401 70.545,371.625 72.699 C 373.585 74.598,374.578 75.185,373.652 73.899 C 373.487 73.669,373.472 73.676,373.559 73.945 C 373.732 74.483,373.490 74.311,372.150 72.943 C 370.430 71.186,368.261 69.454,365.502 67.635 C 363.486 66.306,361.772 65.298,362.066 65.614 M370.685 67.925 C 370.944 68.435,371.191 68.815,371.236 68.770 C 371.322 68.684,370.427 67.000,370.295 67.000 C 370.252 67.000,370.427 67.416,370.685 67.925 M286.533 68.755 C 286.226 69.322,286.010 69.820,286.053 69.863 C 286.096 69.906,286.383 69.443,286.691 68.834 C 287.395 67.438,287.278 67.379,286.533 68.755 M289.302 69.802 C 288.220 70.644,286.661 71.996,285.837 72.806 C 284.196 74.420,284.126 74.418,284.793 72.776 C 285.043 72.162,285.214 71.627,285.174 71.587 C 285.087 71.500,283.976 74.339,283.976 74.649 C 283.976 74.768,284.896 73.971,286.019 72.878 C 287.143 71.784,288.818 70.332,289.741 69.650 C 291.276 68.517,291.563 68.271,291.345 68.271 C 291.303 68.271,290.384 68.960,289.302 69.802 M371.620 69.630 C 371.786 69.978,371.954 70.231,371.993 70.192 C 372.076 70.109,371.525 68.997,371.401 68.997 C 371.355 68.997,371.454 69.282,371.620 69.630 M372.053 70.540 C 372.053 70.640,372.210 71.008,372.401 71.357 C 372.593 71.707,372.749 71.911,372.749 71.811 C 372.749 71.711,372.593 71.344,372.401 70.994 C 372.210 70.645,372.053 70.440,372.053 70.540 M348.979 77.612 C 347.058 78.138,347.163 77.979,347.163 80.348 L 347.163 82.417 345.847 82.470 L 344.530 82.524 344.476 83.779 C 344.411 85.272,344.470 85.332,346.028 85.335 L 347.163 85.338 347.173 90.468 C 347.179 93.289,347.251 95.924,347.334 96.323 C 347.427 96.772,347.492 94.853,347.505 91.299 C 347.530 84.423,347.666 84.975,345.955 84.975 L 344.604 84.975 344.658 83.840 L 344.712 82.705 346.074 82.615 L 347.435 82.524 347.526 80.356 L 347.617 78.188 348.888 77.863 C 350.682 77.404,350.613 77.312,350.613 80.152 L 350.613 82.604 352.928 82.655 L 355.243 82.705 355.297 83.835 L 355.351 84.964 353.027 85.015 L 350.704 85.066 350.656 90.662 C 350.592 98.047,350.789 98.545,353.711 98.380 L 354.939 98.310 355.061 99.292 C 355.244 100.756,355.073 100.862,352.545 100.862 C 350.034 100.862,349.065 100.415,348.211 98.859 C 347.939 98.363,347.714 98.070,347.712 98.208 C 347.680 100.069,350.901 101.644,353.700 101.136 C 355.229 100.858,355.334 100.754,355.331 99.524 C 355.327 98.161,355.289 98.131,353.583 98.135 C 350.881 98.142,350.794 97.914,350.794 90.803 L 350.794 85.338 352.868 85.338 C 355.619 85.338,355.515 85.400,355.515 83.775 L 355.515 82.433 353.155 82.433 L 350.794 82.433 350.794 79.910 C 350.794 76.979,350.882 77.090,348.979 77.612 M311.995 82.397 C 310.759 82.837,309.636 83.587,308.852 84.497 L 308.216 85.233 308.125 83.879 L 308.034 82.524 306.468 82.472 C 304.632 82.411,304.680 82.358,304.857 84.249 L 304.985 85.611 305.012 84.113 L 305.039 82.615 306.381 82.615 C 307.941 82.615,307.944 82.618,307.944 84.354 C 307.944 85.756,308.032 85.778,309.009 84.620 C 311.112 82.126,315.408 81.516,318.424 83.283 C 321.436 85.049,323.027 89.898,322.009 94.216 C 321.707 95.494,321.777 95.950,322.104 94.842 C 322.432 93.734,322.544 90.455,322.302 89.066 C 321.406 83.919,316.549 80.777,311.995 82.397 M364.384 82.313 C 358.186 84.052,355.977 93.864,360.695 98.697 C 362.986 101.044,366.918 101.826,371.221 100.791 C 373.413 100.263,373.382 100.290,373.231 99.087 C 373.036 97.524,372.906 97.435,371.493 97.884 C 366.599 99.442,362.308 97.451,361.768 93.373 L 361.642 92.419 367.923 92.419 C 375.123 92.419,374.580 92.564,374.580 90.645 C 374.580 84.705,369.794 80.794,364.384 82.313 M385.610 82.329 C 384.634 82.677,383.819 83.353,383.103 84.409 C 382.284 85.615,382.231 85.588,382.168 83.931 L 382.115 82.524 380.617 82.471 C 379.490 82.431,379.118 82.476,379.114 82.653 C 378.972 89.365,379.167 100.530,379.429 100.726 C 379.843 101.035,382.280 101.029,382.537 100.720 C 382.662 100.569,382.754 98.489,382.796 94.864 C 382.840 91.051,382.934 89.024,383.086 88.566 C 383.683 86.765,385.359 85.506,387.235 85.449 L 388.289 85.417 388.341 83.743 L 388.393 82.070 387.342 82.078 C 386.764 82.082,385.985 82.195,385.610 82.329 M369.049 82.532 C 372.352 83.387,374.971 87.822,374.296 91.417 L 374.177 92.052 367.888 92.099 L 361.598 92.147 361.615 93.267 C 361.681 97.707,367.147 99.993,372.423 97.787 C 372.717 97.664,373.128 98.748,373.128 99.647 C 373.128 100.278,370.264 100.950,367.569 100.952 C 361.814 100.956,358.433 97.595,358.423 91.858 C 358.412 85.324,363.292 81.040,369.049 82.532 M388.198 83.758 L 388.198 85.265 387.580 85.193 C 385.846 84.991,384.018 86.165,383.134 88.050 C 382.662 89.057,382.660 89.082,382.569 94.780 L 382.478 100.499 380.935 100.499 L 379.392 100.499 379.345 91.549 L 379.298 82.599 380.616 82.652 L 381.934 82.705 382.025 84.280 C 382.136 86.214,382.241 86.339,382.814 85.220 C 383.725 83.439,385.498 82.278,387.335 82.260 L 388.198 82.251 388.198 83.758 M273.990 82.569 C 273.989 82.644,274.725 82.679,275.624 82.647 L 277.258 82.589 277.286 91.816 C 277.301 96.892,277.373 100.513,277.446 99.864 C 277.608 98.426,277.666 83.123,277.511 82.720 C 277.395 82.417,273.991 82.271,273.990 82.569 M283.434 82.744 C 283.437 82.983,283.476 83.007,283.586 82.833 C 283.693 82.665,284.146 82.614,285.172 82.652 L 286.609 82.705 286.711 88.788 C 286.811 94.744,286.871 95.350,287.477 96.515 C 288.963 99.372,293.522 98.898,295.085 95.725 C 295.494 94.896,295.509 94.689,295.597 88.788 L 295.688 82.705 297.186 82.653 L 298.684 82.600 298.684 88.570 C 298.684 91.854,298.737 95.901,298.803 97.565 L 298.922 100.590 297.555 100.590 L 296.187 100.590 296.074 100.023 C 296.011 99.711,295.960 99.152,295.960 98.782 C 295.960 97.771,295.813 97.782,294.764 98.874 C 293.456 100.235,292.157 100.816,290.193 100.920 C 286.309 101.125,284.178 99.097,283.608 94.652 L 283.450 93.418 283.521 94.780 C 283.841 100.921,290.381 103.518,294.730 99.230 C 295.771 98.204,295.778 98.205,295.778 99.397 C 295.778 100.811,297.132 101.468,298.760 100.843 C 299.053 100.730,299.222 83.464,298.937 82.720 C 298.847 82.487,298.509 82.433,297.132 82.433 L 295.437 82.433 295.381 88.652 C 295.327 94.625,295.309 94.899,294.932 95.597 C 293.485 98.273,290.097 99.077,288.254 97.182 C 287.127 96.023,287.036 95.441,286.906 88.606 L 286.791 82.524 285.111 82.472 C 283.599 82.425,283.432 82.452,283.434 82.744 M324.648 82.669 C 324.648 83.102,326.438 87.345,326.458 86.961 C 326.461 86.905,326.096 85.939,325.647 84.813 C 325.197 83.688,324.830 82.733,324.830 82.691 C 324.830 82.649,325.591 82.615,326.521 82.615 L 328.212 82.615 328.604 83.477 C 328.819 83.951,328.948 84.135,328.890 83.886 C 328.582 82.557,328.535 82.529,326.507 82.472 C 325.029 82.431,324.648 82.471,324.648 82.669 M337.921 83.554 C 337.713 84.171,337.574 84.707,337.613 84.746 C 337.652 84.784,337.842 84.341,338.035 83.761 L 338.386 82.705 340.051 82.653 C 340.967 82.624,341.716 82.644,341.716 82.697 C 341.716 82.750,341.385 83.662,340.982 84.723 C 340.578 85.785,340.281 86.687,340.322 86.728 C 340.363 86.769,340.482 86.575,340.587 86.297 C 340.693 86.019,341.030 85.149,341.338 84.363 C 342.132 82.333,342.196 82.433,340.098 82.433 L 338.299 82.433 337.921 83.554 M329.110 84.793 C 329.177 85.043,329.307 85.370,329.400 85.520 C 329.517 85.709,329.531 85.654,329.447 85.338 C 329.380 85.089,329.249 84.762,329.157 84.612 C 329.040 84.423,329.026 84.478,329.110 84.793 M365.319 84.600 C 363.508 85.151,361.905 87.130,361.563 89.239 L 361.459 89.883 366.340 89.835 L 371.221 89.787 371.174 88.891 C 371.013 85.859,368.129 83.745,365.319 84.600 M368.915 85.270 C 369.360 85.531,369.933 86.092,370.226 86.554 C 370.730 87.348,370.796 87.549,371.035 89.015 L 371.147 89.696 366.539 89.696 C 361.324 89.696,361.653 89.772,361.954 88.634 C 362.824 85.336,366.224 83.692,368.915 85.270 M23.241 85.070 C 18.570 86.354,15.266 90.760,15.978 94.754 C 16.380 97.008,16.684 97.453,21.399 102.683 C 24.584 106.215,24.935 107.328,23.315 108.752 C 21.105 110.691,18.559 110.044,17.223 107.202 C 16.614 105.907,16.803 105.864,12.209 108.334 C 10.951 109.011,10.925 109.192,11.810 111.048 C 13.625 114.850,16.980 116.317,21.771 115.404 C 28.987 114.027,32.908 105.238,28.461 100.408 C 26.929 98.744,25.261 96.949,24.328 95.960 C 21.579 93.045,21.347 92.082,23.126 90.982 C 24.578 90.084,26.740 90.946,27.702 92.806 C 28.121 93.617,28.552 93.465,30.982 91.653 C 33.512 89.767,33.538 89.714,32.583 88.412 C 30.335 85.350,26.809 84.089,23.241 85.070 M311.641 85.143 C 310.135 85.827,308.459 87.913,308.503 89.051 C 308.511 89.263,308.639 89.071,308.801 88.606 C 310.306 84.276,315.723 83.691,318.056 87.608 C 318.175 87.808,318.277 87.876,318.283 87.760 C 318.307 87.277,316.835 85.731,315.911 85.271 C 314.703 84.668,312.810 84.612,311.641 85.143 M336.940 86.287 C 336.012 88.894,334.986 92.105,335.058 92.177 C 335.098 92.217,335.677 90.644,336.344 88.682 C 337.012 86.719,337.524 85.081,337.484 85.040 C 337.443 85.000,337.198 85.561,336.940 86.287 M28.232 85.435 C 29.722 85.887,31.143 86.991,32.290 88.588 C 33.094 89.707,33.111 89.677,30.640 91.511 L 28.416 93.161 28.053 92.713 C 27.853 92.466,27.541 92.051,27.359 91.791 C 26.008 89.859,22.802 89.865,21.883 91.802 C 21.309 93.011,21.764 93.735,25.694 97.867 C 30.305 102.714,31.061 105.279,29.089 109.384 C 25.699 116.441,15.136 117.539,12.187 111.141 C 11.222 109.048,11.033 109.323,14.844 107.286 C 16.485 106.409,16.572 106.411,16.990 107.337 C 18.438 110.549,21.195 111.174,23.559 108.824 C 25.289 107.105,24.913 105.939,21.425 102.200 C 16.738 97.176,16.289 96.433,16.282 93.703 C 16.269 88.193,22.687 83.753,28.232 85.435 M99.798 86.126 C 95.541 88.627,94.594 89.399,94.486 90.460 C 94.443 90.889,94.329 91.770,94.234 92.419 C 94.139 93.069,93.934 94.621,93.777 95.869 C 93.621 97.118,93.417 98.670,93.323 99.319 C 93.229 99.968,93.026 101.562,92.872 102.860 C 92.717 104.158,92.515 105.751,92.424 106.400 C 92.332 107.049,92.127 108.561,91.968 109.759 C 91.809 110.958,91.598 112.509,91.498 113.207 C 91.254 114.914,91.286 114.934,94.326 114.934 C 97.561 114.934,97.312 115.299,97.859 109.759 C 97.937 108.961,98.050 108.184,98.109 108.034 C 98.167 107.885,98.298 106.993,98.398 106.052 C 98.624 103.943,98.725 103.833,99.443 104.908 C 99.758 105.379,101.377 107.828,103.041 110.350 L 106.068 114.934 109.275 114.931 C 112.974 114.928,113.172 114.872,112.564 114.000 C 112.166 113.428,109.038 109.043,107.597 107.036 C 107.238 106.537,106.745 105.842,106.501 105.493 C 106.257 105.143,105.764 104.448,105.406 103.949 C 103.668 101.525,103.158 100.694,103.277 100.481 C 103.347 100.356,104.589 99.014,106.037 97.499 C 109.395 93.986,109.133 94.621,108.593 91.330 C 108.059 88.077,108.323 87.970,103.390 93.429 C 102.583 94.322,101.521 95.514,101.030 96.079 C 99.536 97.794,99.434 97.599,99.944 93.997 C 100.088 92.979,100.293 91.453,100.399 90.604 C 100.505 89.755,100.673 88.473,100.772 87.755 C 101.066 85.637,100.953 85.448,99.798 86.126 M329.556 85.911 C 329.548 86.081,331.367 91.002,331.559 91.330 C 331.884 91.886,331.706 91.300,330.805 88.850 C 329.941 86.501,329.569 85.627,329.556 85.911 M100.513 87.290 C 100.447 87.864,100.316 88.906,100.221 89.605 C 99.711 93.343,99.505 94.839,99.302 96.284 C 98.952 98.765,99.032 98.727,102.701 94.659 C 108.267 88.487,107.889 88.764,108.121 90.686 C 108.182 91.190,108.360 92.157,108.518 92.835 C 108.849 94.264,109.054 93.876,106.573 96.499 C 103.214 100.048,102.769 100.534,102.769 100.649 C 102.769 100.714,104.934 103.802,107.581 107.510 C 110.227 111.219,112.392 114.367,112.392 114.507 C 112.392 114.717,111.861 114.753,109.358 114.712 L 106.323 114.662 105.227 113.076 C 104.624 112.204,103.028 109.801,101.680 107.736 C 98.449 102.787,98.405 102.750,98.206 104.780 C 98.143 105.422,97.959 106.927,97.796 108.125 C 97.634 109.324,97.417 111.003,97.314 111.857 C 97.212 112.710,97.064 113.650,96.985 113.945 L 96.842 114.480 94.418 114.531 C 91.814 114.586,91.657 114.535,91.786 113.672 C 91.824 113.417,91.946 112.433,92.058 111.484 C 92.169 110.536,92.344 109.228,92.446 108.579 C 92.548 107.930,92.703 106.786,92.792 106.037 C 92.880 105.288,93.077 103.736,93.229 102.587 C 93.382 101.439,93.586 99.887,93.684 99.138 C 93.782 98.389,93.988 96.836,94.142 95.688 C 94.296 94.539,94.500 92.894,94.597 92.032 C 94.862 89.669,94.837 89.703,97.621 87.876 C 100.619 85.908,100.672 85.897,100.513 87.290 M199.728 91.920 L 199.818 97.049 204.931 97.140 C 207.742 97.190,210.005 97.170,209.959 97.095 C 209.912 97.020,207.632 96.959,204.892 96.959 L 199.909 96.959 199.909 91.875 C 199.909 89.079,199.848 86.791,199.773 86.791 C 199.698 86.791,199.678 89.099,199.728 91.920 M339.824 87.714 C 339.658 88.130,339.556 88.504,339.597 88.546 C 339.639 88.587,339.809 88.281,339.976 87.865 C 340.142 87.449,340.244 87.075,340.203 87.033 C 340.161 86.991,339.991 87.298,339.824 87.714 M326.550 87.426 C 326.855 88.403,328.876 93.336,328.944 93.269 C 329.031 93.181,326.944 87.849,326.636 87.372 C 326.461 87.100,326.450 87.107,326.550 87.426 M318.603 88.970 C 318.790 89.792,318.790 93.413,318.603 94.235 C 318.476 94.794,318.487 94.827,318.694 94.507 C 319.022 94.000,319.022 89.205,318.694 88.697 C 318.487 88.378,318.476 88.410,318.603 88.970 M338.907 90.063 C 338.339 91.567,336.856 95.390,335.809 98.048 C 333.410 104.138,330.924 107.315,327.555 108.595 L 326.638 108.944 326.472 108.534 C 326.381 108.309,326.179 107.758,326.024 107.308 C 325.784 106.612,325.758 106.585,325.853 107.127 C 326.225 109.265,326.498 109.389,328.579 108.369 C 331.978 106.702,333.786 103.859,337.452 94.417 C 338.208 92.469,338.991 90.482,339.192 90.000 C 339.394 89.519,339.527 89.030,339.489 88.915 C 339.450 88.800,339.188 89.316,338.907 90.063 M308.378 91.875 C 308.378 93.223,308.407 93.774,308.441 93.100 C 308.476 92.426,308.476 91.323,308.441 90.649 C 308.407 89.975,308.378 90.527,308.378 91.875 M331.741 91.875 C 331.742 92.025,331.865 92.351,332.016 92.601 L 332.289 93.055 332.169 92.601 C 331.994 91.942,331.740 91.510,331.741 91.875 M43.486 92.539 C 38.745 93.109,34.967 95.826,32.732 100.275 C 32.092 101.549,31.940 102.204,31.412 105.946 C 31.300 106.745,31.132 107.930,31.041 108.579 C 30.949 109.228,30.747 110.822,30.593 112.120 C 30.290 114.669,30.151 115.691,29.668 118.965 C 29.256 121.753,29.167 121.652,32.047 121.652 C 33.608 121.652,34.327 121.585,34.457 121.425 C 34.757 121.055,35.278 118.000,35.532 115.116 C 35.645 113.835,35.782 113.711,36.555 114.188 C 40.159 116.416,45.938 115.679,49.781 112.502 C 58.863 104.993,54.518 91.215,43.486 92.539 M67.501 92.591 C 62.348 93.298,57.442 97.595,56.433 102.284 C 56.344 102.701,56.196 103.368,56.105 103.768 C 55.199 107.745,57.823 112.919,61.552 114.509 C 63.345 115.274,63.834 115.366,66.092 115.371 C 70.008 115.378,71.417 114.740,71.713 112.827 C 72.409 108.333,72.428 107.853,71.902 107.853 C 71.702 107.853,71.539 107.914,71.538 107.989 C 71.537 108.611,68.257 110.031,66.818 110.033 C 60.141 110.039,59.786 100.604,66.376 98.298 C 71.803 96.398,74.517 100.359,73.161 108.201 C 73.068 108.742,72.991 109.477,72.991 109.835 C 72.991 110.193,72.870 111.058,72.722 111.757 C 72.358 113.477,72.362 114.681,72.734 114.824 C 73.142 114.981,77.218 114.956,77.459 114.795 C 77.654 114.665,78.062 112.131,78.824 106.310 C 79.495 101.184,79.115 98.924,77.143 96.312 C 75.044 93.532,71.267 92.075,67.501 92.591 M334.635 93.055 C 334.515 93.418,334.460 93.758,334.512 93.810 C 334.565 93.863,334.694 93.597,334.798 93.218 C 335.045 92.325,334.917 92.198,334.635 93.055 M47.208 93.114 C 59.584 96.484,54.813 115.132,41.580 115.114 C 39.572 115.111,37.033 114.387,36.113 113.555 C 35.540 113.036,35.511 113.143,34.756 118.656 C 34.592 119.855,34.428 120.937,34.393 121.062 C 34.314 121.339,30.042 121.389,29.873 121.114 C 29.813 121.018,29.896 119.936,30.056 118.709 C 30.216 117.482,30.418 115.906,30.504 115.207 C 30.589 114.507,30.791 112.955,30.952 111.757 C 31.113 110.558,31.319 108.965,31.410 108.216 C 32.050 102.954,32.384 101.509,33.383 99.682 C 36.136 94.644,42.218 91.755,47.208 93.114 M71.722 93.120 C 77.014 94.634,79.422 98.806,78.620 105.071 C 78.519 105.852,78.358 107.104,78.260 107.853 C 78.162 108.602,77.952 110.236,77.794 111.484 C 77.373 114.810,77.588 114.571,75.012 114.571 C 72.599 114.571,72.558 114.549,72.803 113.368 C 72.883 112.981,73.086 111.521,73.253 110.123 C 73.420 108.724,73.634 107.138,73.728 106.597 C 74.203 103.870,73.840 101.352,72.737 99.712 C 70.416 96.261,64.227 97.364,62.036 101.620 C 58.939 107.635,65.129 112.866,70.772 109.003 C 71.977 108.178,71.963 108.156,71.713 110.479 C 71.375 113.620,71.235 113.998,70.268 114.380 C 61.847 117.713,54.057 110.354,56.918 101.770 C 58.977 95.593,66.006 91.486,71.722 93.120 M86.127 93.396 C 85.052 93.792,83.674 94.825,82.893 95.819 C 81.753 97.272,81.625 97.755,80.886 103.404 C 80.729 104.603,80.522 106.026,80.427 106.567 C 80.332 107.108,80.254 107.885,80.254 108.293 C 80.254 108.701,80.177 109.305,80.083 109.634 C 79.707 110.943,79.454 114.595,79.727 114.768 C 80.145 115.032,84.308 114.973,84.685 114.697 C 85.012 114.458,85.107 113.947,85.512 110.213 C 85.693 108.544,85.974 106.540,86.252 104.937 C 86.349 104.382,86.428 103.667,86.428 103.348 C 86.428 99.608,87.282 98.411,89.953 98.411 C 91.241 98.411,91.527 98.358,91.665 98.094 C 91.806 97.824,92.247 94.750,92.309 93.600 C 92.333 93.162,87.219 92.993,86.127 93.396 M332.382 93.602 C 332.715 94.931,333.349 96.682,333.517 96.738 C 333.717 96.804,334.377 94.825,334.211 94.659 C 334.109 94.557,333.729 95.788,333.728 96.223 C 333.726 96.771,333.380 96.103,332.910 94.644 C 332.459 93.240,332.127 92.586,332.382 93.602 M91.928 93.463 C 92.056 93.697,91.484 97.763,91.289 98.003 C 91.166 98.153,90.567 98.230,89.517 98.230 C 87.215 98.230,86.600 98.811,86.350 101.226 C 86.288 101.825,86.160 102.887,86.066 103.586 C 85.972 104.285,85.768 105.837,85.612 107.036 C 85.457 108.234,85.252 109.787,85.157 110.486 C 85.062 111.185,84.933 112.247,84.870 112.846 C 84.684 114.633,84.752 114.590,82.197 114.531 L 79.982 114.480 80.011 113.300 C 80.027 112.651,80.131 111.466,80.242 110.667 C 80.572 108.289,80.942 105.514,81.172 103.677 C 82.058 96.602,82.985 94.831,86.428 93.639 C 87.288 93.341,91.782 93.198,91.928 93.463 M329.050 93.690 C 329.106 93.840,329.598 95.066,330.143 96.414 C 331.684 100.224,331.647 100.039,331.102 101.191 C 330.185 103.130,328.579 104.729,326.568 105.706 C 326.111 105.928,325.738 106.171,325.738 106.247 C 325.738 106.323,326.248 106.124,326.872 105.805 C 329.215 104.608,332.009 101.102,331.637 99.825 C 331.307 98.690,329.299 93.736,329.094 93.550 C 329.014 93.477,328.994 93.541,329.050 93.690 M308.503 94.650 C 308.396 97.052,312.405 99.251,315.198 98.323 C 316.550 97.874,318.503 95.926,318.467 95.062 C 318.462 94.957,318.295 95.181,318.095 95.560 C 316.048 99.439,310.222 99.134,308.782 95.073 C 308.636 94.662,308.511 94.472,308.503 94.650 M321.045 96.867 C 318.823 101.152,312.462 102.385,309.233 99.156 C 308.824 98.746,308.448 98.411,308.398 98.411 C 308.348 98.411,308.307 100.576,308.307 103.223 L 308.307 108.034 306.662 108.034 C 305.612 108.034,305.058 108.100,305.129 108.216 C 305.291 108.478,308.004 108.446,308.271 108.180 C 308.429 108.022,308.488 106.695,308.488 103.351 L 308.488 98.741 309.382 99.544 C 312.184 102.064,316.937 101.763,319.806 98.885 C 320.638 98.051,321.915 95.980,321.718 95.784 C 321.678 95.743,321.375 96.231,321.045 96.867 M185.505 97.080 C 185.337 97.247,185.351 100.912,185.520 101.016 C 185.595 101.063,185.656 100.230,185.656 99.166 L 185.656 97.231 190.740 97.136 L 195.824 97.041 190.725 97.000 C 187.920 96.977,185.571 97.013,185.505 97.080 M41.719 98.054 C 36.126 100.325,35.013 107.461,39.893 109.769 C 44.321 111.864,50.028 107.580,49.503 102.556 C 49.124 98.923,45.186 96.646,41.719 98.054 M46.195 98.405 C 49.725 99.918,50.235 104.709,47.198 107.811 C 41.827 113.296,34.148 107.663,38.220 101.226 C 39.969 98.461,43.452 97.229,46.195 98.405 M273.808 100.581 C 273.808 103.766,272.757 105.053,269.587 105.752 C 269.160 105.847,269.092 105.948,269.115 106.449 C 269.139 106.980,269.149 106.989,269.216 106.549 C 269.281 106.130,269.416 106.036,270.194 105.869 C 271.946 105.493,272.980 104.736,273.516 103.435 C 273.809 102.724,274.137 99.864,273.925 99.864 C 273.861 99.864,273.808 100.187,273.808 100.581 M199.728 106.213 L 199.728 111.290 197.776 111.352 L 195.824 111.414 197.821 111.404 L 199.818 111.394 199.909 106.264 C 199.959 103.443,199.939 101.135,199.864 101.135 C 199.789 101.135,199.728 103.420,199.728 106.213 M276.933 102.727 C 276.303 105.778,274.563 107.515,271.435 108.215 C 270.108 108.511,269.587 108.417,269.431 107.853 L 269.305 107.399 269.287 107.876 C 269.228 109.442,273.454 108.410,275.335 106.399 C 276.422 105.237,277.492 102.654,277.222 101.844 C 277.186 101.735,277.056 102.132,276.933 102.727 M283.976 108.195 C 283.976 108.284,284.101 108.631,284.254 108.967 L 284.532 109.578 284.417 108.942 L 284.301 108.307 284.959 109.065 C 285.499 109.689,286.883 110.924,289.469 113.090 C 289.644 113.237,289.787 113.314,289.787 113.262 C 289.787 113.210,289.154 112.646,288.381 112.008 C 287.608 111.371,286.342 110.216,285.569 109.442 C 284.167 108.039,283.976 107.890,283.976 108.195 M372.845 108.876 C 371.139 110.958,365.742 115.027,362.121 116.962 C 361.184 117.462,360.418 117.903,360.418 117.941 C 360.418 118.282,364.769 115.695,367.690 113.616 C 369.041 112.655,371.515 110.518,372.548 109.421 C 373.587 108.317,373.716 108.227,373.559 108.715 C 373.472 108.984,373.487 108.991,373.652 108.761 C 374.361 107.775,373.665 107.875,372.845 108.876 M284.534 109.759 C 284.534 109.859,284.651 110.145,284.793 110.395 C 284.936 110.645,285.053 110.767,285.053 110.667 C 285.053 110.567,284.936 110.281,284.793 110.032 C 284.651 109.782,284.534 109.660,284.534 109.759 M372.975 110.130 C 372.671 110.798,372.729 110.940,373.058 110.333 C 373.212 110.050,373.304 109.784,373.262 109.743 C 373.221 109.701,373.092 109.876,372.975 110.130 M285.247 111.368 C 285.247 111.566,286.331 113.663,286.433 113.663 C 286.483 113.663,286.268 113.153,285.955 112.528 C 285.362 111.345,285.247 111.158,285.247 111.368 M371.350 113.578 C 371.031 114.224,370.809 114.753,370.857 114.753 C 370.979 114.753,372.077 112.552,371.995 112.470 C 371.959 112.434,371.668 112.932,371.350 113.578 M290.028 113.431 C 290.135 113.605,292.973 115.590,293.600 115.929 C 294.198 116.253,293.438 115.671,291.710 114.481 C 290.721 113.800,289.964 113.327,290.028 113.431 M287.239 115.252 C 287.548 115.826,287.971 116.500,288.179 116.750 L 288.559 117.204 288.291 116.750 C 288.144 116.500,287.759 115.826,287.435 115.252 C 287.112 114.678,286.809 114.208,286.763 114.208 C 286.717 114.208,286.931 114.678,287.239 115.252 M369.236 117.194 C 366.930 120.893,362.669 125.631,359.147 128.413 C 356.116 130.807,355.593 131.254,356.786 130.430 C 360.577 127.814,363.310 125.192,366.885 120.744 C 368.279 119.011,370.399 115.842,370.165 115.842 C 370.118 115.842,369.699 116.451,369.236 117.194 M293.963 116.086 C 293.963 116.233,296.908 117.860,297.003 117.765 C 297.048 117.720,296.729 117.504,296.295 117.284 C 295.861 117.065,295.159 116.684,294.734 116.437 C 294.310 116.191,293.963 116.033,293.963 116.086 M298.502 118.566 C 299.251 118.955,299.946 119.274,300.045 119.274 C 300.145 119.274,299.614 118.955,298.865 118.566 C 298.116 118.176,297.422 117.857,297.322 117.857 C 297.222 117.857,297.753 118.176,298.502 118.566 M358.874 118.648 C 358.175 118.985,357.653 119.268,357.714 119.276 C 357.883 119.300,360.236 118.212,360.236 118.110 C 360.236 117.987,360.288 117.966,358.874 118.648 M289.628 118.929 C 292.202 122.957,297.845 128.419,302.651 131.536 C 304.591 132.794,306.491 133.892,306.491 133.756 C 306.491 133.707,305.817 133.280,304.993 132.807 C 302.935 131.625,301.655 130.750,299.319 128.933 C 295.788 126.186,294.152 124.476,289.640 118.818 L 289.222 118.293 289.628 118.929 M300.681 119.564 C 300.931 119.707,301.217 119.824,301.316 119.824 C 301.416 119.824,301.294 119.707,301.044 119.564 C 300.794 119.422,300.508 119.305,300.409 119.305 C 300.309 119.305,300.431 119.422,300.681 119.564 M356.786 119.564 C 356.537 119.707,356.414 119.824,356.514 119.824 C 356.614 119.824,356.900 119.707,357.149 119.564 C 357.399 119.422,357.522 119.305,357.422 119.305 C 357.322 119.305,357.036 119.422,356.786 119.564 M302.133 120.113 C 305.985 121.908,320.391 125.244,321.125 124.510 C 321.170 124.464,320.327 124.328,319.251 124.208 C 314.695 123.698,309.925 122.613,305.216 121.016 C 301.821 119.865,301.228 119.691,302.133 120.113 M354.244 120.481 C 353.395 120.812,351.648 121.391,350.361 121.768 C 349.074 122.145,348.102 122.480,348.202 122.513 C 348.443 122.593,353.346 121.065,355.012 120.390 C 355.738 120.096,356.210 119.861,356.060 119.868 C 355.910 119.874,355.093 120.151,354.244 120.481 M347.026 122.681 C 346.901 122.731,345.716 123.003,344.393 123.286 C 343.071 123.568,342.120 123.807,342.281 123.815 C 342.623 123.834,346.637 123.014,347.435 122.763 C 347.791 122.651,347.854 122.591,347.617 122.590 C 347.417 122.589,347.151 122.630,347.026 122.681 M338.629 124.211 C 336.732 124.485,336.598 124.522,337.812 124.441 C 339.356 124.338,342.363 123.874,341.443 123.881 C 341.144 123.883,339.877 124.032,338.629 124.211 M323.105 124.770 C 324.998 124.929,332.860 124.931,334.725 124.772 C 335.524 124.704,332.910 124.648,328.915 124.648 C 324.921 124.648,322.306 124.703,323.105 124.770 M354.179 131.999 C 352.599 132.984,352.198 133.301,353.129 132.827 C 354.320 132.221,356.049 131.038,355.651 131.101 C 355.626 131.105,354.964 131.509,354.179 131.999 M351.657 133.467 C 351.282 133.664,350.976 133.867,350.976 133.916 C 350.976 133.966,351.303 133.840,351.702 133.636 C 352.102 133.432,352.429 133.226,352.429 133.178 C 352.429 133.060,352.427 133.060,351.657 133.467 M306.688 133.885 C 306.875 134.052,307.944 134.544,307.944 134.462 C 307.944 134.358,306.937 133.818,306.742 133.818 C 306.671 133.818,306.646 133.848,306.688 133.885 M290.377 134.824 C 285.922 136.024,283.434 140.754,285.073 144.911 C 287.102 150.058,293.688 151.471,297.568 147.591 C 302.942 142.217,297.671 132.860,290.377 134.824 M308.125 134.632 C 308.125 134.728,309.367 135.275,309.555 135.262 C 309.700 135.253,308.443 134.562,308.261 134.551 C 308.187 134.547,308.125 134.584,308.125 134.632 M348.979 134.813 C 348.729 134.954,347.843 135.337,347.010 135.663 C 346.176 135.990,345.574 136.284,345.672 136.316 C 345.849 136.375,349.705 134.749,349.705 134.615 C 349.705 134.482,349.434 134.556,348.979 134.813 M294.733 135.473 C 302.798 138.617,299.596 150.780,291.061 149.419 C 285.629 148.553,283.117 142.177,286.474 137.775 C 288.308 135.369,291.900 134.368,294.733 135.473 M310.123 135.542 C 310.372 135.685,310.658 135.802,310.758 135.802 C 310.858 135.802,310.735 135.685,310.486 135.542 C 310.236 135.400,309.950 135.283,309.850 135.283 C 309.750 135.283,309.873 135.400,310.123 135.542 M311.212 135.966 C 311.362 136.058,311.689 136.189,311.938 136.255 C 312.254 136.340,312.309 136.326,312.120 136.209 C 311.970 136.116,311.643 135.986,311.394 135.919 C 311.078 135.834,311.023 135.849,311.212 135.966 M343.895 136.813 C 343.545 136.948,343.382 137.061,343.532 137.064 C 343.681 137.067,344.049 136.957,344.349 136.820 C 345.050 136.499,344.724 136.494,343.895 136.813 M315.479 137.424 C 315.679 137.512,316.128 137.635,316.478 137.699 C 316.914 137.778,316.999 137.764,316.750 137.655 C 316.550 137.568,316.101 137.444,315.751 137.381 C 315.315 137.302,315.230 137.315,315.479 137.424 M341.443 137.547 C 340.727 137.794,340.726 137.796,341.353 137.691 C 342.093 137.566,342.851 137.289,342.442 137.293 C 342.292 137.294,341.843 137.408,341.443 137.547 M317.567 137.994 C 317.817 138.074,318.184 138.139,318.384 138.139 C 318.672 138.139,318.653 138.109,318.293 137.994 C 318.044 137.914,317.676 137.848,317.476 137.848 C 317.189 137.848,317.208 137.879,317.567 137.994 M339.174 138.084 C 338.724 138.215,338.479 138.328,338.629 138.335 C 338.779 138.343,339.310 138.236,339.809 138.097 C 340.309 137.958,340.554 137.845,340.354 137.846 C 340.154 137.847,339.623 137.954,339.174 138.084 M321.289 138.730 C 321.689 138.813,322.220 138.876,322.469 138.870 C 322.761 138.863,322.663 138.806,322.197 138.710 C 321.798 138.627,321.266 138.564,321.017 138.570 C 320.726 138.576,320.823 138.634,321.289 138.730 M335.542 138.720 C 335.060 138.821,335.016 138.857,335.361 138.867 C 335.611 138.875,336.142 138.813,336.541 138.730 C 337.147 138.605,337.177 138.581,336.723 138.583 C 336.423 138.585,335.892 138.646,335.542 138.720 M323.516 139.030 C 323.741 139.073,324.068 139.072,324.242 139.026 C 324.415 138.981,324.231 138.945,323.831 138.947 C 323.432 138.949,323.290 138.986,323.516 139.030 M333.772 139.027 C 333.947 139.072,334.233 139.072,334.408 139.027 C 334.582 138.981,334.439 138.944,334.090 138.944 C 333.740 138.944,333.597 138.981,333.772 139.027 M325.874 139.214 C 326.198 139.255,326.729 139.255,327.054 139.214 C 327.379 139.174,327.113 139.141,326.464 139.141 C 325.815 139.141,325.549 139.174,325.874 139.214 M331.139 139.214 C 331.464 139.255,331.995 139.255,332.320 139.214 C 332.644 139.174,332.379 139.141,331.729 139.141 C 331.080 139.141,330.815 139.174,331.139 139.214 " stroke="none" fill="#aaadb1" fill-rule="evenodd"></path></g></svg>